<svg width="53" height="51" viewBox="0 0 53 51" fill="none" xmlns="http://www.w3.org/2000/svg">
<path fill-rule="evenodd" clip-rule="evenodd" d="M21.7602 7.82378C21.6944 6.43235 21.7076 5.07777 21.7734 3.80613C21.9972 -0.0180171 25.5514 -0.00484152 25.8279 0.000424079C26.4071 0.0135881 28.9874 0.176804 29.6061 3.15845C29.6456 3.33616 29.7378 4.62359 29.7641 5.11987C29.8167 6.17826 29.843 7.21825 29.6982 8.26215C29.8298 10.0327 30.1194 11.8546 30.6723 13.5686C31.4753 16.0987 32.7786 18.434 35.135 19.678C39.3475 21.9159 44.8895 21.825 49.5232 22.3937C51.4583 22.6306 52.9327 24.2445 52.9985 26.1928C53.0512 28.1424 51.6822 29.8432 49.7602 30.1973C43.968 31.2688 37.307 36.5358 33.0681 40.7773C31.7649 42.0805 30.3037 45.1845 28.6714 47.1723C27.355 48.7651 25.8937 49.8328 24.5115 50.2566C23.9718 50.4212 20.9836 51.0215 19.6408 47.928C19.2723 47.0591 17.969 42.5096 17.8506 41.991C17.1397 39.0185 16.1261 36.3633 14.1384 33.9991C12.4139 31.9494 10.3207 30.1592 7.80637 29.1666C6.79273 28.7664 5.73961 28.4623 4.68649 28.149C4.31789 28.1042 3.27797 27.9726 2.90937 27.8475C2.15902 27.5974 1.60608 27.2052 1.21116 26.8142C0.460805 26.0744 0.0790027 25.1911 0.0131824 24.1853C-0.0394739 23.5219 0.0526938 22.7346 0.5266 21.8619C0.88203 21.2419 1.68501 20.3085 3.13306 19.703C4.64693 19.0698 7.89853 18.4682 8.47775 18.3115C12.5059 17.2268 16.4552 15.5774 19.5488 12.7182C21.089 11.2886 21.4443 9.74704 21.7602 7.82378ZM24.3405 19.0185C25.8939 22.2384 28.2106 24.9489 31.4358 26.6562C32.7654 27.3658 34.2134 27.9042 35.7141 28.3228C32.6206 30.4764 29.7508 32.9249 27.4734 35.1944C26.7362 35.9329 25.9333 37.1282 25.0776 38.4406C24.0771 34.9364 22.6028 31.7889 20.1806 28.9086C18.7457 27.2104 17.1265 25.6584 15.323 24.3644C18.5877 23.0716 21.6814 21.3419 24.3405 19.0185Z" fill="#3C3679"/>
</svg>
