<svg width="44" height="56" viewBox="0 0 44 56" fill="none" xmlns="http://www.w3.org/2000/svg">
<path d="M37.1523 17.6994C36.7841 17.3416 36.2674 17.179 35.7619 17.2622C35.2554 17.345 34.8179 17.663 34.583 18.1193C33.7749 19.6891 32.7484 21.1318 31.5408 22.4071C31.6612 21.4859 31.7218 20.5591 31.7218 19.6299C31.7218 17.8468 31.4829 16.012 31.0113 14.1756C29.461 8.14388 25.3957 3.04296 19.858 0.18082C19.376 -0.0682826 18.8015 -0.059537 18.3271 0.204143C17.8528 0.46793 17.5422 0.951559 17.4996 1.49252C17.0679 6.97386 14.2446 11.9607 9.74915 15.1775C9.68966 15.2204 9.63059 15.2638 9.57152 15.307C9.44916 15.3965 9.33385 15.4811 9.22612 15.5522C9.20922 15.5635 9.19251 15.5749 9.17611 15.5867C6.34883 17.6109 4.01601 20.3092 2.42946 23.3908C0.817381 26.5253 0 29.8889 0 33.3878C0 35.1703 0.23895 37.0052 0.710264 38.8419C3.19752 48.5228 11.9095 55.2841 21.8963 55.2841C33.9694 55.2841 43.7914 45.4614 43.7914 33.3878C43.7914 27.434 41.4336 21.8624 37.1523 17.6994Z" fill="#3C3679"/>
<path d="M21.058 40.207C24.7589 40.207 27.7591 37.2068 27.7591 33.5058C27.7591 29.8049 24.7589 26.8047 21.058 26.8047C17.3571 26.8047 14.3569 29.8049 14.3569 33.5058C14.3569 37.2068 17.3571 40.207 21.058 40.207Z" fill="#F8F8F8"/>
</svg>
