<svg width="48" height="51" viewBox="0 0 48 51" fill="none" xmlns="http://www.w3.org/2000/svg">
<rect y="0.5" width="47.3743" height="50" rx="5" fill="#F3DEB3"/>
<path fill-rule="evenodd" clip-rule="evenodd" d="M24 17.0001C19.313 17.0001 15.5 20.8131 15.5 25.5001C15.5 30.1871 19.313 34.0001 24 34.0001C28.687 34.0001 32.5 30.1871 32.5 25.5001C32.5 20.8131 28.687 17.0001 24 17.0001ZM24 35.5001C18.486 35.5001 14 31.0141 14 25.5001C14 19.9861 18.486 15.5001 24 15.5001C29.514 15.5001 34 19.9861 34 25.5001C34 31.0141 29.514 35.5001 24 35.5001Z" fill="#131126"/>
<path fill-rule="evenodd" clip-rule="evenodd" d="M27.4312 29.1925C27.3002 29.1925 27.1682 29.1585 27.0472 29.0875L23.2772 26.8385C23.0512 26.7025 22.9112 26.4575 22.9112 26.1935V21.3455C22.9112 20.9315 23.2472 20.5955 23.6612 20.5955C24.0762 20.5955 24.4112 20.9315 24.4112 21.3455V25.7675L27.8162 27.7975C28.1712 28.0105 28.2882 28.4705 28.0762 28.8265C27.9352 29.0615 27.6862 29.1925 27.4312 29.1925Z" fill="#131126"/>
</svg>
