<svg width="48" height="51" viewBox="0 0 48 51" fill="none" xmlns="http://www.w3.org/2000/svg">
<rect y="0.5" width="47.3743" height="50" rx="5" fill="#CBCFFA"/>
<mask id="mask0_0_489" style="mask-type:luminance" maskUnits="userSpaceOnUse" x="14" y="22" width="20" height="15">
<path fill-rule="evenodd" clip-rule="evenodd" d="M14.0004 22.2943H34V36.0383H14.0004V22.2943Z" fill="white"/>
</mask>
<g mask="url(#mask0_0_489)">
<path fill-rule="evenodd" clip-rule="evenodd" d="M29.5654 36.0383H18.4354C15.9904 36.0383 14.0004 34.0493 14.0004 31.6033V26.7283C14.0004 24.2833 15.9904 22.2943 18.4354 22.2943H19.3684C19.7824 22.2943 20.1184 22.6303 20.1184 23.0443C20.1184 23.4583 19.7824 23.7943 19.3684 23.7943H18.4354C16.8164 23.7943 15.5004 25.1103 15.5004 26.7283V31.6033C15.5004 33.2222 16.8164 34.5383 18.4354 34.5383H29.5654C31.1834 34.5383 32.5004 33.2222 32.5004 31.6033V26.7193C32.5004 25.1063 31.1884 23.7943 29.5764 23.7943H28.6334C28.2194 23.7943 27.8834 23.4583 27.8834 23.0443C27.8834 22.6303 28.2194 22.2943 28.6334 22.2943H29.5764C32.0154 22.2943 34.0004 24.2793 34.0004 26.7193V31.6033C34.0004 34.0493 32.0104 36.0383 29.5654 36.0383Z" fill="#131126"/>
</g>
<mask id="mask1_0_489" style="mask-type:luminance" maskUnits="userSpaceOnUse" x="23" y="15" width="2" height="15">
<path fill-rule="evenodd" clip-rule="evenodd" d="M23.25 15.5002H24.75V29.0411H23.25V15.5002Z" fill="white"/>
</mask>
<g mask="url(#mask1_0_489)">
<path fill-rule="evenodd" clip-rule="evenodd" d="M24 29.0411C23.586 29.0411 23.25 28.7051 23.25 28.2911V16.2501C23.25 15.8361 23.586 15.5001 24 15.5001C24.414 15.5001 24.75 15.8361 24.75 16.2501V28.2911C24.75 28.7051 24.414 29.0411 24 29.0411Z" fill="#131126"/>
</g>
<path fill-rule="evenodd" clip-rule="evenodd" d="M21.085 19.9288C20.894 19.9288 20.702 19.8558 20.556 19.7098C20.263 19.4178 20.261 18.9438 20.554 18.6498L23.469 15.7218C23.75 15.4388 24.25 15.4388 24.531 15.7218L27.447 18.6498C27.739 18.9438 27.738 19.4178 27.445 19.7098C27.151 20.0018 26.677 20.0018 26.385 19.7078L24 17.3138L21.616 19.7078C21.47 19.8558 21.277 19.9288 21.085 19.9288Z" fill="#131126"/>
</svg>
